<mxfile host="Electron" modified="2023-06-19T12:49:28.032Z" agent="Mozilla/5.0 (X11; Linux x86_64) AppleWebKit/537.36 (KHTML, like Gecko) draw.io/21.2.1 Chrome/112.0.5615.87 Electron/24.1.2 Safari/537.36" etag="hjFrXPV2owBrPQJnjnHJ" version="21.2.1" type="device">
  <diagram name="Seite-1" id="2ei9fs6yh0YLtIkMBj2g">
    <mxGraphModel dx="1434" dy="1003" grid="1" gridSize="10" guides="1" tooltips="1" connect="1" arrows="1" fold="1" page="1" pageScale="1" pageWidth="827" pageHeight="1169" math="0" shadow="0">
      <root>
        <mxCell id="0" />
        <mxCell id="1" parent="0" />
        <mxCell id="f3E8reBXjzv2X92751Mp-6" style="edgeStyle=orthogonalEdgeStyle;rounded=0;orthogonalLoop=1;jettySize=auto;html=1;exitX=0.5;exitY=0;exitDx=0;exitDy=0;exitPerimeter=0;entryX=0;entryY=0.25;entryDx=0;entryDy=0;endArrow=none;endFill=0;" parent="1" source="f3E8reBXjzv2X92751Mp-2" target="f3E8reBXjzv2X92751Mp-4" edge="1">
          <mxGeometry relative="1" as="geometry">
            <Array as="points">
              <mxPoint x="250" y="190" />
              <mxPoint x="300" y="190" />
              <mxPoint x="300" y="220" />
            </Array>
          </mxGeometry>
        </mxCell>
        <mxCell id="f3E8reBXjzv2X92751Mp-7" style="edgeStyle=orthogonalEdgeStyle;rounded=0;orthogonalLoop=1;jettySize=auto;html=1;exitX=0.5;exitY=1;exitDx=0;exitDy=0;exitPerimeter=0;entryX=0;entryY=0.75;entryDx=0;entryDy=0;endArrow=none;endFill=0;" parent="1" source="f3E8reBXjzv2X92751Mp-2" target="f3E8reBXjzv2X92751Mp-4" edge="1">
          <mxGeometry relative="1" as="geometry">
            <Array as="points">
              <mxPoint x="250" y="290" />
              <mxPoint x="300" y="290" />
              <mxPoint x="300" y="260" />
            </Array>
          </mxGeometry>
        </mxCell>
        <mxCell id="f3E8reBXjzv2X92751Mp-2" value="" style="pointerEvents=1;verticalLabelPosition=bottom;shadow=0;dashed=0;align=center;html=1;verticalAlign=top;shape=mxgraph.electrical.signal_sources.source;aspect=fixed;points=[[0.5,0,0],[1,0.5,0],[0.5,1,0],[0,0.5,0]];elSignalType=dc3;fillColor=#d5e8d4;strokeColor=#82b366;" parent="1" vertex="1">
          <mxGeometry x="210" y="200" width="80" height="80" as="geometry" />
        </mxCell>
        <mxCell id="f3E8reBXjzv2X92751Mp-8" style="edgeStyle=orthogonalEdgeStyle;rounded=0;orthogonalLoop=1;jettySize=auto;html=1;exitX=1;exitY=0.5;exitDx=0;exitDy=0;endArrow=oval;endFill=1;" parent="1" source="f3E8reBXjzv2X92751Mp-3" edge="1">
          <mxGeometry relative="1" as="geometry">
            <mxPoint x="460" y="260" as="targetPoint" />
          </mxGeometry>
        </mxCell>
        <mxCell id="f3E8reBXjzv2X92751Mp-9" style="edgeStyle=orthogonalEdgeStyle;rounded=0;orthogonalLoop=1;jettySize=auto;html=1;exitX=0;exitY=0.5;exitDx=0;exitDy=0;endArrow=oval;endFill=1;" parent="1" source="f3E8reBXjzv2X92751Mp-3" edge="1">
          <mxGeometry relative="1" as="geometry">
            <mxPoint x="340" y="220" as="targetPoint" />
          </mxGeometry>
        </mxCell>
        <mxCell id="f3E8reBXjzv2X92751Mp-3" value="V" style="verticalLabelPosition=middle;shadow=0;dashed=0;align=center;html=1;verticalAlign=middle;strokeWidth=1;shape=ellipse;aspect=fixed;fontSize=50;fillColor=#f5f5f5;fontColor=#333333;strokeColor=#666666;" parent="1" vertex="1">
          <mxGeometry x="360" y="110" width="80" height="80" as="geometry" />
        </mxCell>
        <mxCell id="f3E8reBXjzv2X92751Mp-4" value="&lt;font style=&quot;font-size: 20px;&quot;&gt;A/D-Wandler&lt;/font&gt;" style="whiteSpace=wrap;html=1;aspect=fixed;fillColor=#fff2cc;strokeColor=#d6b656;" parent="1" vertex="1">
          <mxGeometry x="480" y="200" width="80" height="80" as="geometry" />
        </mxCell>
        <mxCell id="f3E8reBXjzv2X92751Mp-5" value="&lt;font style=&quot;font-size: 20px;&quot;&gt;Labor&lt;br&gt;Netzteil&lt;/font&gt;" style="text;html=1;strokeColor=none;fillColor=none;align=center;verticalAlign=middle;whiteSpace=wrap;rounded=0;" parent="1" vertex="1">
          <mxGeometry x="220" y="223" width="60" height="30" as="geometry" />
        </mxCell>
        <mxCell id="f3E8reBXjzv2X92751Mp-10" value="&lt;font style=&quot;font-size: 20px;&quot;&gt;Multimeter&lt;/font&gt;" style="text;html=1;strokeColor=none;fillColor=none;align=center;verticalAlign=middle;whiteSpace=wrap;rounded=0;" parent="1" vertex="1">
          <mxGeometry x="370" y="190" width="60" height="30" as="geometry" />
        </mxCell>
      </root>
    </mxGraphModel>
  </diagram>
</mxfile>
